%TF.GenerationSoftware,Altium Limited,Altium Designer,22.1.2 (22)*%
G04 Layer_Color=255*
%FSLAX45Y45*%
%MOMM*%
%TF.SameCoordinates,A05C4332-DD78-49BD-A17D-671ED2E2A3CF*%
%TF.FilePolarity,Positive*%
%TF.FileFunction,Pads,Bot*%
%TF.Part,Single*%
G01*
G75*
%TA.AperFunction,ComponentPad*%
%ADD33R,1.50000X1.50000*%
%ADD34C,1.50000*%
%ADD35C,1.92000*%
%ADD36P,2.71529X4X90.0*%
%ADD37C,0.65000*%
%ADD38R,1.50000X1.50000*%
%ADD39R,1.81500X1.81500*%
%ADD40C,1.81500*%
%ADD41R,1.92000X1.92000*%
%ADD42C,2.10000*%
%ADD43P,2.56680X4X360.0*%
%TA.AperFunction,ViaPad*%
%ADD44C,1.52400*%
D33*
X254000Y2108200D02*
D03*
D34*
Y2362200D02*
D03*
Y2616200D02*
D03*
Y2870200D02*
D03*
Y3124200D02*
D03*
X4762800Y2727000D02*
D03*
Y2473000D02*
D03*
X5016800D02*
D03*
D35*
X1754405Y3824505D02*
D03*
X1574800Y3644900D02*
D03*
X2311400Y4597400D02*
D03*
Y4851400D02*
D03*
D36*
X1395195Y3465295D02*
D03*
D37*
X4254800Y1992383D02*
D03*
Y3208541D02*
D03*
D38*
X5016800Y2727000D02*
D03*
D39*
X2844800Y4838700D02*
D03*
D40*
X2844800Y4584700D02*
D03*
X2844800Y4330700D02*
D03*
X3568700Y3733800D02*
D03*
X3748305Y3554195D02*
D03*
D41*
X2311400Y4343400D02*
D03*
D42*
X4267200Y4076700D02*
D03*
X3913647Y4430253D02*
D03*
X1206500Y4356100D02*
D03*
X852947Y4002547D02*
D03*
D43*
X3389095Y3913405D02*
D03*
D44*
X650000Y2600000D02*
D03*
%TF.MD5,22b45c1b44c8559111344edfff33bcef*%
M02*
