%TF.GenerationSoftware,Altium Limited,Altium Designer,22.1.2 (22)*%
G04 Layer_Color=8421504*
%FSLAX45Y45*%
%MOMM*%
%TF.SameCoordinates,A05C4332-DD78-49BD-A17D-671ED2E2A3CF*%
%TF.FilePolarity,Positive*%
%TF.FileFunction,Paste,Top*%
%TF.Part,Single*%
G01*
G75*
%TA.AperFunction,SMDPad,CuDef*%
G04:AMPARAMS|DCode=10|XSize=1.7mm|YSize=1.1mm|CornerRadius=0mm|HoleSize=0mm|Usage=FLASHONLY|Rotation=150.000|XOffset=0mm|YOffset=0mm|HoleType=Round|Shape=Rectangle|*
%AMROTATEDRECTD10*
4,1,4,1.01112,0.05132,0.46112,-0.90132,-1.01112,-0.05132,-0.46112,0.90132,1.01112,0.05132,0.0*
%
%ADD10ROTATEDRECTD10*%

G04:AMPARAMS|DCode=11|XSize=1.7mm|YSize=1.1mm|CornerRadius=0mm|HoleSize=0mm|Usage=FLASHONLY|Rotation=135.000|XOffset=0mm|YOffset=0mm|HoleType=Round|Shape=Rectangle|*
%AMROTATEDRECTD11*
4,1,4,0.98995,-0.21213,0.21213,-0.98995,-0.98995,0.21213,-0.21213,0.98995,0.98995,-0.21213,0.0*
%
%ADD11ROTATEDRECTD11*%

%ADD12R,1.30000X3.25000*%
%ADD13R,1.30000X0.95000*%
G04:AMPARAMS|DCode=14|XSize=1.7mm|YSize=1.1mm|CornerRadius=0mm|HoleSize=0mm|Usage=FLASHONLY|Rotation=60.000|XOffset=0mm|YOffset=0mm|HoleType=Round|Shape=Rectangle|*
%AMROTATEDRECTD14*
4,1,4,0.05132,-1.01112,-0.90132,-0.46112,-0.05132,1.01112,0.90132,0.46112,0.05132,-1.01112,0.0*
%
%ADD14ROTATEDRECTD14*%

G04:AMPARAMS|DCode=15|XSize=1.2mm|YSize=0.4mm|CornerRadius=0mm|HoleSize=0mm|Usage=FLASHONLY|Rotation=45.000|XOffset=0mm|YOffset=0mm|HoleType=Round|Shape=Rectangle|*
%AMROTATEDRECTD15*
4,1,4,-0.28284,-0.56569,-0.56569,-0.28284,0.28284,0.56569,0.56569,0.28284,-0.28284,-0.56569,0.0*
%
%ADD15ROTATEDRECTD15*%

G04:AMPARAMS|DCode=16|XSize=1.7mm|YSize=1.1mm|CornerRadius=0mm|HoleSize=0mm|Usage=FLASHONLY|Rotation=225.000|XOffset=0mm|YOffset=0mm|HoleType=Round|Shape=Rectangle|*
%AMROTATEDRECTD16*
4,1,4,0.21213,0.98995,0.98995,0.21213,-0.21213,-0.98995,-0.98995,-0.21213,0.21213,0.98995,0.0*
%
%ADD16ROTATEDRECTD16*%

%ADD17R,1.10000X1.70000*%
%ADD18R,1.70000X1.10000*%
G04:AMPARAMS|DCode=19|XSize=1.525mm|YSize=0.65mm|CornerRadius=0mm|HoleSize=0mm|Usage=FLASHONLY|Rotation=225.000|XOffset=0mm|YOffset=0mm|HoleType=Round|Shape=Rectangle|*
%AMROTATEDRECTD19*
4,1,4,0.30936,0.76898,0.76898,0.30936,-0.30936,-0.76898,-0.76898,-0.30936,0.30936,0.76898,0.0*
%
%ADD19ROTATEDRECTD19*%

G04:AMPARAMS|DCode=20|XSize=1.7mm|YSize=1.1mm|CornerRadius=0mm|HoleSize=0mm|Usage=FLASHONLY|Rotation=245.000|XOffset=0mm|YOffset=0mm|HoleType=Round|Shape=Rectangle|*
%AMROTATEDRECTD20*
4,1,4,-0.13925,1.00280,0.85770,0.53792,0.13925,-1.00280,-0.85770,-0.53792,-0.13925,1.00280,0.0*
%
%ADD20ROTATEDRECTD20*%

G04:AMPARAMS|DCode=21|XSize=1.7mm|YSize=1.1mm|CornerRadius=0mm|HoleSize=0mm|Usage=FLASHONLY|Rotation=320.000|XOffset=0mm|YOffset=0mm|HoleType=Round|Shape=Rectangle|*
%AMROTATEDRECTD21*
4,1,4,-1.00467,0.12504,-0.29760,0.96770,1.00467,-0.12504,0.29760,-0.96770,-1.00467,0.12504,0.0*
%
%ADD21ROTATEDRECTD21*%

G04:AMPARAMS|DCode=22|XSize=1.7mm|YSize=1.1mm|CornerRadius=0mm|HoleSize=0mm|Usage=FLASHONLY|Rotation=70.000|XOffset=0mm|YOffset=0mm|HoleType=Round|Shape=Rectangle|*
%AMROTATEDRECTD22*
4,1,4,0.22612,-0.98685,-0.80755,-0.61063,-0.22612,0.98685,0.80755,0.61063,0.22612,-0.98685,0.0*
%
%ADD22ROTATEDRECTD22*%

G04:AMPARAMS|DCode=23|XSize=1.7mm|YSize=1.1mm|CornerRadius=0mm|HoleSize=0mm|Usage=FLASHONLY|Rotation=120.000|XOffset=0mm|YOffset=0mm|HoleType=Round|Shape=Rectangle|*
%AMROTATEDRECTD23*
4,1,4,0.90132,-0.46112,-0.05132,-1.01112,-0.90132,0.46112,0.05132,1.01112,0.90132,-0.46112,0.0*
%
%ADD23ROTATEDRECTD23*%

%TA.AperFunction,ConnectorPad*%
%ADD24R,1.70000X1.10000*%
%TA.AperFunction,SMDPad,CuDef*%
G04:AMPARAMS|DCode=25|XSize=1.7mm|YSize=1.1mm|CornerRadius=0mm|HoleSize=0mm|Usage=FLASHONLY|Rotation=10.000|XOffset=0mm|YOffset=0mm|HoleType=Round|Shape=Rectangle|*
%AMROTATEDRECTD25*
4,1,4,-0.74158,-0.68925,-0.93259,0.39405,0.74158,0.68925,0.93259,-0.39405,-0.74158,-0.68925,0.0*
%
%ADD25ROTATEDRECTD25*%

G04:AMPARAMS|DCode=26|XSize=1.525mm|YSize=0.65mm|CornerRadius=0mm|HoleSize=0mm|Usage=FLASHONLY|Rotation=330.000|XOffset=0mm|YOffset=0mm|HoleType=Round|Shape=Rectangle|*
%AMROTATEDRECTD26*
4,1,4,-0.82285,0.09979,-0.49785,0.66271,0.82285,-0.09979,0.49785,-0.66271,-0.82285,0.09979,0.0*
%
%ADD26ROTATEDRECTD26*%

%ADD27R,1.52500X0.65000*%
D10*
X1324800Y777313D02*
D03*
X1189800Y543487D02*
D03*
X1261300Y1107513D02*
D03*
X1126300Y873687D02*
D03*
X1058100Y1221813D02*
D03*
X923100Y987987D02*
D03*
X854900Y1336113D02*
D03*
X719900Y1102287D02*
D03*
D11*
X3981659Y1555959D02*
D03*
X3790741Y1365041D02*
D03*
X3651459Y1594059D02*
D03*
X3460541Y1403141D02*
D03*
D12*
X1211300Y2019300D02*
D03*
D13*
X541300Y1790300D02*
D03*
Y2019300D02*
D03*
Y2248300D02*
D03*
D14*
X1755213Y478600D02*
D03*
X1521387Y613600D02*
D03*
D15*
X3577213Y1065637D02*
D03*
X3669137Y973713D02*
D03*
X3534787Y839363D02*
D03*
X3488825Y885325D02*
D03*
X3442863Y931287D02*
D03*
D16*
X3612941Y1301959D02*
D03*
X3803859Y1111041D02*
D03*
D17*
X2455800Y139700D02*
D03*
X2725800D02*
D03*
X3255900Y4699000D02*
D03*
X3525900D02*
D03*
X817500Y3022600D02*
D03*
X1087500D02*
D03*
D18*
X596900Y3116200D02*
D03*
Y3386200D02*
D03*
X4699000Y2294000D02*
D03*
Y2024000D02*
D03*
X4927600D02*
D03*
Y2294000D02*
D03*
X2578100Y4503800D02*
D03*
Y4233800D02*
D03*
X3124200Y779400D02*
D03*
Y1049400D02*
D03*
X4876800Y2938400D02*
D03*
Y3208400D02*
D03*
D19*
X4121236Y664129D02*
D03*
X4031434Y753931D02*
D03*
X3941631Y843734D02*
D03*
X3851829Y933536D02*
D03*
X4235364Y1317071D02*
D03*
X4325166Y1227269D02*
D03*
X4414969Y1137466D02*
D03*
X4504771Y1047664D02*
D03*
D20*
X2128951Y1225647D02*
D03*
X1884249Y1339753D02*
D03*
D21*
X4569876Y1678216D02*
D03*
X4396324Y1471384D02*
D03*
X4561424Y1331684D02*
D03*
X4734976Y1538516D02*
D03*
D22*
X1892441Y300173D02*
D03*
X2146159Y207827D02*
D03*
D23*
X3629587Y377000D02*
D03*
X3863413Y512000D02*
D03*
X3761813Y715200D02*
D03*
X3527987Y580200D02*
D03*
D24*
X2578100Y4665600D02*
D03*
Y4935600D02*
D03*
D25*
X319458Y1872849D02*
D03*
X366342Y1606951D02*
D03*
D26*
X2044616Y969178D02*
D03*
X1981116Y859193D02*
D03*
X1917616Y749207D02*
D03*
X1854116Y639222D02*
D03*
X1384384Y910422D02*
D03*
X1447884Y1020407D02*
D03*
X1511384Y1130393D02*
D03*
X1574884Y1240378D02*
D03*
D27*
X2917300Y355600D02*
D03*
Y482600D02*
D03*
Y609600D02*
D03*
Y736600D02*
D03*
Y863600D02*
D03*
Y990600D02*
D03*
Y1117600D02*
D03*
X2374900D02*
D03*
Y990600D02*
D03*
Y863600D02*
D03*
Y736600D02*
D03*
Y609600D02*
D03*
Y482600D02*
D03*
Y355600D02*
D03*
%TF.MD5,d71a349c9b5d27d7f75218d700df2010*%
M02*
