%TF.GenerationSoftware,Altium Limited,Altium Designer,22.1.2 (22)*%
G04 Layer_Color=0*
%FSLAX45Y45*%
%MOMM*%
%TF.SameCoordinates,A05C4332-DD78-49BD-A17D-671ED2E2A3CF*%
%TF.FilePolarity,Positive*%
%TF.FileFunction,Plated,1,4,PTH,Drill*%
%TF.Part,Single*%
G01*
G75*
%TA.AperFunction,ComponentDrill*%
%ADD84C,0.90000*%
%ADD85C,1.28000*%
%ADD86C,1.00000*%
%ADD87C,1.21000*%
%ADD88C,1.28000*%
%ADD89C,1.40000*%
%ADD90C,1.21000*%
%ADD91C,1.40000*%
%TA.AperFunction,OtherDrill,Pad Free-9 (6.5mm,26mm)*%
%ADD92C,3.20000*%
%TA.AperFunction,ViaDrill,NotFilled*%
%ADD93C,0.40000*%
%ADD94C,0.30000*%
D84*
X254000Y2108200D02*
D03*
Y2362200D02*
D03*
Y2616200D02*
D03*
Y2870200D02*
D03*
Y3124200D02*
D03*
D85*
X1754405Y3824505D02*
D03*
X1574800Y3644900D02*
D03*
X1395195Y3465295D02*
D03*
D86*
X4762800Y2727000D02*
D03*
Y2473000D02*
D03*
X5016800D02*
D03*
Y2727000D02*
D03*
D87*
X2844800Y4838700D02*
D03*
X2844800Y4584700D02*
D03*
X2844800Y4330700D02*
D03*
D88*
X2311400Y4343400D02*
D03*
Y4597400D02*
D03*
Y4851400D02*
D03*
D89*
X4267200Y4076700D02*
D03*
X3913647Y4430253D02*
D03*
D90*
X3389095Y3913405D02*
D03*
X3568700Y3733800D02*
D03*
X3748305Y3554195D02*
D03*
D91*
X1206500Y4356100D02*
D03*
X852947Y4002547D02*
D03*
D92*
X650000Y2600000D02*
D03*
D93*
X4750000Y3750000D02*
D03*
X4875000Y3500000D02*
D03*
X4625000D02*
D03*
X4500000Y3250000D02*
D03*
X4375000Y3500000D02*
D03*
X4250000Y2750000D02*
D03*
Y2250000D02*
D03*
X4125000Y3500000D02*
D03*
X4000000Y3250000D02*
D03*
X4125000Y3000000D02*
D03*
Y2500000D02*
D03*
X4000000Y2250000D02*
D03*
Y1750000D02*
D03*
X3875000Y2000000D02*
D03*
X3750000Y1750000D02*
D03*
X2625000Y500000D02*
D03*
X2000000Y4250000D02*
D03*
X1125000Y1500000D02*
D03*
X500000Y3750000D02*
D03*
X375000Y3500000D02*
D03*
D94*
X4559300Y4140200D02*
D03*
X4241800Y4356100D02*
D03*
X4395661Y4351894D02*
D03*
X4406900Y4203700D02*
D03*
X1701800Y1333500D02*
D03*
X3334150Y756050D02*
D03*
X2159000Y495300D02*
D03*
X3454400Y317500D02*
D03*
X533400Y3581400D02*
D03*
X3911181Y1244600D02*
D03*
X3342550Y975450D02*
D03*
X3282316Y1213250D02*
D03*
X3505200Y1168400D02*
D03*
X2590800Y165100D02*
D03*
X1390387Y482600D02*
D03*
X914400Y1181100D02*
D03*
X1193800Y990600D02*
D03*
X3390900Y4673600D02*
D03*
X3441700Y4889500D02*
D03*
X3251200Y4914900D02*
D03*
X3073400Y4927600D02*
D03*
Y5054600D02*
D03*
X3225800Y5029200D02*
D03*
X3441700Y4991100D02*
D03*
X3568700Y4940300D02*
D03*
X3721100Y4864100D02*
D03*
X4606499Y4013200D02*
D03*
X2679700Y4127500D02*
D03*
X2336800D02*
D03*
X3251200Y4521200D02*
D03*
X825500Y1625600D02*
D03*
Y1536700D02*
D03*
X2298700Y215900D02*
D03*
X3225800Y647700D02*
D03*
X2019300Y482600D02*
D03*
X825500Y1714500D02*
D03*
X1143000Y1752600D02*
D03*
X1866900Y1117600D02*
D03*
X1879600Y965200D02*
D03*
X2578100Y4800600D02*
D03*
Y4356100D02*
D03*
X1206500Y2755900D02*
D03*
X1016000Y2857500D02*
D03*
X1511300Y812800D02*
D03*
X2667000Y1092200D02*
D03*
X3302000Y1320800D02*
D03*
X4305300Y787400D02*
D03*
X3086100Y622300D02*
D03*
X4089400Y1181100D02*
D03*
X3987800Y1066800D02*
D03*
X4075797Y977900D02*
D03*
X2171700Y749300D02*
D03*
X2540000Y876300D02*
D03*
X3416300Y469900D02*
D03*
X4775200Y1778000D02*
D03*
X4851400Y1663700D02*
D03*
X4686300Y1870550D02*
D03*
X4927600Y1866900D02*
D03*
%TF.MD5,80276b7279c2685048fff1fff06b9d57*%
M02*
