%TF.GenerationSoftware,Altium Limited,Altium Designer,22.1.2 (22)*%
G04 Layer_Color=16711935*
%FSLAX45Y45*%
%MOMM*%
%TF.SameCoordinates,A05C4332-DD78-49BD-A17D-671ED2E2A3CF*%
%TF.FilePolarity,Negative*%
%TF.FileFunction,Soldermask,Bot*%
%TF.Part,Single*%
G01*
G75*
%TA.AperFunction,ComponentPad*%
%ADD50R,1.58000X1.58000*%
%ADD51C,1.58000*%
%ADD52C,2.00000*%
%ADD53P,2.82843X4X90.0*%
%ADD54C,0.73000*%
%ADD55R,1.58000X1.58000*%
%ADD56R,1.89500X1.89500*%
%ADD57C,1.89500*%
%ADD58R,2.00000X2.00000*%
%ADD59C,2.18000*%
%ADD60P,2.67993X4X360.0*%
%TA.AperFunction,ViaPad*%
%ADD61C,1.60400*%
D50*
X254000Y2108200D02*
D03*
D51*
Y2362200D02*
D03*
Y2616200D02*
D03*
Y2870200D02*
D03*
Y3124200D02*
D03*
X4762800Y2727000D02*
D03*
Y2473000D02*
D03*
X5016800D02*
D03*
D52*
X1754405Y3824505D02*
D03*
X1574800Y3644900D02*
D03*
X2311400Y4597400D02*
D03*
Y4851400D02*
D03*
D53*
X1395195Y3465295D02*
D03*
D54*
X4254800Y1992383D02*
D03*
Y3208541D02*
D03*
D55*
X5016800Y2727000D02*
D03*
D56*
X2844800Y4838700D02*
D03*
D57*
X2844800Y4584700D02*
D03*
X2844800Y4330700D02*
D03*
X3568700Y3733800D02*
D03*
X3748305Y3554195D02*
D03*
D58*
X2311400Y4343400D02*
D03*
D59*
X4267200Y4076700D02*
D03*
X3913647Y4430253D02*
D03*
X1206500Y4356100D02*
D03*
X852947Y4002547D02*
D03*
D60*
X3389095Y3913405D02*
D03*
D61*
X650000Y2600000D02*
D03*
%TF.MD5,5343faf553e4cbe99bdf30e6b30c9e1f*%
M02*
