%TF.GenerationSoftware,Altium Limited,Altium Designer,22.1.2 (22)*%
G04 Layer_Physical_Order=4*
G04 Layer_Color=16711680*
%FSLAX45Y45*%
%MOMM*%
%TF.SameCoordinates,A05C4332-DD78-49BD-A17D-671ED2E2A3CF*%
%TF.FilePolarity,Positive*%
%TF.FileFunction,Copper,L4,Bot,Signal*%
%TF.Part,Single*%
G01*
G75*
%TA.AperFunction,Conductor*%
%ADD28C,0.63500*%
%TA.AperFunction,ComponentPad*%
%ADD33R,1.50000X1.50000*%
%ADD34C,1.50000*%
%ADD35C,1.92000*%
%ADD36P,2.71529X4X90.0*%
%ADD37C,0.65000*%
%ADD38R,1.50000X1.50000*%
%ADD39R,1.81500X1.81500*%
%ADD40C,1.81500*%
%ADD41R,1.92000X1.92000*%
%ADD42C,2.10000*%
%ADD43P,2.56680X4X360.0*%
%TA.AperFunction,ViaPad*%
%ADD44C,1.52400*%
%ADD45C,0.80000*%
%ADD46C,0.50000*%
%TA.AperFunction,Conductor*%
%ADD47C,0.76200*%
G36*
X329217Y2355653D02*
X329996Y2349886D01*
X331333Y2344147D01*
X333228Y2338437D01*
X335681Y2332756D01*
X338692Y2327104D01*
X342261Y2321481D01*
X346388Y2315886D01*
X351074Y2310321D01*
X356317Y2304784D01*
X311416Y2259883D01*
X305879Y2265126D01*
X300313Y2269812D01*
X294719Y2273939D01*
X289096Y2277508D01*
X283443Y2280519D01*
X277762Y2282972D01*
X272053Y2284867D01*
X266314Y2286204D01*
X260546Y2286983D01*
X254750Y2287204D01*
X328996Y2361450D01*
X329217Y2355653D01*
D02*
G37*
G36*
X939800Y3149600D02*
Y1241540D01*
X929240Y1234484D01*
X925340Y1236100D01*
X903460D01*
X883245Y1227727D01*
X867773Y1212255D01*
X859400Y1192040D01*
Y1170160D01*
X867773Y1149945D01*
X883245Y1134473D01*
X903460Y1126100D01*
X925340D01*
X929240Y1127716D01*
X939800Y1120660D01*
Y976298D01*
X929983Y968241D01*
X928475Y968541D01*
X928474Y968540D01*
X876300D01*
X855581Y964419D01*
X838017Y952683D01*
X826281Y935119D01*
X822160Y914400D01*
X823177Y909283D01*
X811473Y903027D01*
X644958Y1069542D01*
X613920Y1108463D01*
X532721Y1222902D01*
X458066Y1341714D01*
X441366Y1371931D01*
Y1995245D01*
X443416Y2005551D01*
X443415Y2210849D01*
X441232Y2221827D01*
X441366Y2222499D01*
X441387Y2223354D01*
X442025Y2223528D01*
X441460Y2226372D01*
X440609Y2226303D01*
X437737Y2240741D01*
X433847Y2246562D01*
X427405Y2256204D01*
X410857Y2272753D01*
X410856Y2272753D01*
X395750Y2287860D01*
Y2918950D01*
X317500Y2997200D01*
X190500D01*
X139700Y3048000D01*
Y3200400D01*
X203200Y3263900D01*
X825500D01*
X939800Y3149600D01*
D02*
G37*
G36*
X3421161Y4054925D02*
X3423683Y4024376D01*
X3425891Y4011966D01*
X3428729Y4001465D01*
X3432198Y3992873D01*
X3436297Y3986190D01*
X3441027Y3981417D01*
X3446388Y3978553D01*
X3452379Y3977598D01*
X3325811D01*
X3331802Y3978553D01*
X3337163Y3981417D01*
X3341893Y3986190D01*
X3345993Y3992873D01*
X3349461Y4001465D01*
X3352300Y4011966D01*
X3354507Y4024376D01*
X3356084Y4038696D01*
X3357345Y4073064D01*
X3420845D01*
X3421161Y4054925D01*
D02*
G37*
G36*
X3116156Y5143738D02*
X3257281Y5111527D01*
X3396373Y5071455D01*
X3533007Y5023645D01*
X3666742Y4968250D01*
X3797158Y4905445D01*
X3923849Y4835425D01*
X4046417Y4758411D01*
X4164471Y4674647D01*
X4277650Y4584391D01*
X4385577Y4487940D01*
X4487938Y4385580D01*
X4584393Y4277647D01*
X4674645Y4164474D01*
X4758410Y4046419D01*
X4816913Y3953313D01*
X4762500Y3898900D01*
X4622800Y3898900D01*
X4380581Y4141119D01*
X4371546Y4156767D01*
X4347267Y4181046D01*
X4331619Y4190081D01*
X4194806Y4326894D01*
X4039486Y4482214D01*
X4039447Y4482361D01*
X4021674Y4513145D01*
X3996539Y4538280D01*
X3965755Y4556053D01*
X3965607Y4556093D01*
X3860800Y4660900D01*
X3447076D01*
X3445900Y4662660D01*
Y4684540D01*
X3437527Y4704755D01*
X3422055Y4720227D01*
X3401840Y4728600D01*
X3379960D01*
X3359745Y4720227D01*
X3344273Y4704755D01*
X3335900Y4684540D01*
Y4662660D01*
X3334724Y4660900D01*
X3263900D01*
X2971800Y4953000D01*
Y5155383D01*
X2984500Y5166107D01*
X3116156Y5143738D01*
D02*
G37*
G36*
X4718685Y1746885D02*
X4720590Y1736090D01*
X4723765Y1726565D01*
X4728210Y1718310D01*
X4733925Y1711325D01*
X4740910Y1705610D01*
X4749165Y1701165D01*
X4758690Y1697990D01*
X4769485Y1696085D01*
X4781550Y1695450D01*
X4686300Y1631950D01*
X4591050Y1695450D01*
X4603115Y1696085D01*
X4613910Y1697990D01*
X4623435Y1701165D01*
X4631690Y1705610D01*
X4638675Y1711325D01*
X4644390Y1718310D01*
X4648835Y1726565D01*
X4652010Y1736090D01*
X4653915Y1746885D01*
X4654550Y1758950D01*
X4718050D01*
X4718685Y1746885D01*
D02*
G37*
%LPC*%
G36*
X267218Y3224600D02*
X266700D01*
Y3136900D01*
X354400D01*
Y3137418D01*
X347558Y3162953D01*
X334340Y3185847D01*
X315647Y3204540D01*
X292753Y3217758D01*
X267218Y3224600D01*
D02*
G37*
G36*
X241300D02*
X240782D01*
X215247Y3217758D01*
X192353Y3204540D01*
X173660Y3185847D01*
X160442Y3162953D01*
X153600Y3137418D01*
Y3136900D01*
X241300D01*
Y3224600D01*
D02*
G37*
G36*
X354400Y3111500D02*
X266700D01*
Y3023800D01*
X267218D01*
X292753Y3030642D01*
X315647Y3043860D01*
X334340Y3062553D01*
X347558Y3085447D01*
X354400Y3110982D01*
Y3111500D01*
D02*
G37*
G36*
X241300D02*
X153600D01*
Y3110982D01*
X160442Y3085447D01*
X173660Y3062553D01*
X192353Y3043860D01*
X215247Y3030642D01*
X240782Y3023800D01*
X241300D01*
Y3111500D01*
D02*
G37*
G36*
X668713Y2790000D02*
X631287D01*
X594579Y2782698D01*
X560001Y2768375D01*
X528882Y2747582D01*
X502418Y2721118D01*
X481624Y2689998D01*
X467302Y2655421D01*
X460000Y2618713D01*
Y2581286D01*
X467302Y2544579D01*
X481624Y2510001D01*
X502418Y2478882D01*
X528882Y2452417D01*
X560001Y2431624D01*
X594579Y2417302D01*
X631287Y2410000D01*
X668713D01*
X705421Y2417302D01*
X739999Y2431624D01*
X771118Y2452417D01*
X797582Y2478882D01*
X818376Y2510001D01*
X832698Y2544579D01*
X840000Y2581286D01*
Y2618713D01*
X832698Y2655421D01*
X818376Y2689998D01*
X797582Y2721118D01*
X771118Y2747582D01*
X739999Y2768375D01*
X705421Y2782698D01*
X668713Y2790000D01*
D02*
G37*
G36*
X838200Y1736299D02*
Y1727200D01*
X847299D01*
X846694Y1728661D01*
X839661Y1735694D01*
X838200Y1736299D01*
D02*
G37*
G36*
X812800D02*
X811339Y1735694D01*
X804306Y1728661D01*
X803701Y1727200D01*
X812800D01*
Y1736299D01*
D02*
G37*
G36*
X847299Y1701800D02*
X838200D01*
Y1692701D01*
X839661Y1693306D01*
X846694Y1700339D01*
X847299Y1701800D01*
D02*
G37*
G36*
X812800D02*
X803701D01*
X804306Y1700339D01*
X811339Y1693306D01*
X812800Y1692701D01*
Y1701800D01*
D02*
G37*
G36*
X838200Y1647399D02*
Y1638300D01*
X847299D01*
X846694Y1639761D01*
X839661Y1646794D01*
X838200Y1647399D01*
D02*
G37*
G36*
X812800D02*
X811339Y1646794D01*
X804306Y1639761D01*
X803701Y1638300D01*
X812800D01*
Y1647399D01*
D02*
G37*
G36*
X847299Y1612900D02*
X838200D01*
Y1603801D01*
X839661Y1604406D01*
X846694Y1611439D01*
X847299Y1612900D01*
D02*
G37*
G36*
X812800D02*
X803701D01*
X804306Y1611439D01*
X811339Y1604406D01*
X812800Y1603801D01*
Y1612900D01*
D02*
G37*
G36*
X838200Y1558499D02*
Y1549400D01*
X847299D01*
X846694Y1550861D01*
X839661Y1557894D01*
X838200Y1558499D01*
D02*
G37*
G36*
X812800D02*
X811339Y1557894D01*
X804306Y1550861D01*
X803701Y1549400D01*
X812800D01*
Y1558499D01*
D02*
G37*
G36*
X847299Y1524000D02*
X838200D01*
Y1514901D01*
X839661Y1515506D01*
X846694Y1522539D01*
X847299Y1524000D01*
D02*
G37*
G36*
X812800D02*
X803701D01*
X804306Y1522539D01*
X811339Y1515506D01*
X812800Y1514901D01*
Y1524000D01*
D02*
G37*
G36*
X3086100Y5076399D02*
Y5067300D01*
X3095199D01*
X3094594Y5068761D01*
X3087561Y5075794D01*
X3086100Y5076399D01*
D02*
G37*
G36*
X3060700D02*
X3059239Y5075794D01*
X3052206Y5068761D01*
X3051601Y5067300D01*
X3060700D01*
Y5076399D01*
D02*
G37*
G36*
X3238500Y5050999D02*
Y5041900D01*
X3247599D01*
X3246994Y5043361D01*
X3239961Y5050394D01*
X3238500Y5050999D01*
D02*
G37*
G36*
X3213100D02*
X3211639Y5050394D01*
X3204606Y5043361D01*
X3204001Y5041900D01*
X3213100D01*
Y5050999D01*
D02*
G37*
G36*
X3095199Y5041900D02*
X3086100D01*
Y5032801D01*
X3087561Y5033406D01*
X3094594Y5040439D01*
X3095199Y5041900D01*
D02*
G37*
G36*
X3060700D02*
X3051601D01*
X3052206Y5040439D01*
X3059239Y5033406D01*
X3060700Y5032801D01*
Y5041900D01*
D02*
G37*
G36*
X3247599Y5016500D02*
X3238500D01*
Y5007401D01*
X3239961Y5008006D01*
X3246994Y5015039D01*
X3247599Y5016500D01*
D02*
G37*
G36*
X3213100D02*
X3204001D01*
X3204606Y5015039D01*
X3211639Y5008006D01*
X3213100Y5007401D01*
Y5016500D01*
D02*
G37*
G36*
X3454400Y5012899D02*
Y5003800D01*
X3463499D01*
X3462894Y5005261D01*
X3455861Y5012294D01*
X3454400Y5012899D01*
D02*
G37*
G36*
X3429000D02*
X3427539Y5012294D01*
X3420506Y5005261D01*
X3419901Y5003800D01*
X3429000D01*
Y5012899D01*
D02*
G37*
G36*
X3463499Y4978400D02*
X3454400D01*
Y4969301D01*
X3455861Y4969906D01*
X3462894Y4976939D01*
X3463499Y4978400D01*
D02*
G37*
G36*
X3429000D02*
X3419901D01*
X3420506Y4976939D01*
X3427539Y4969906D01*
X3429000Y4969301D01*
Y4978400D01*
D02*
G37*
G36*
X3581400Y4962099D02*
Y4953000D01*
X3590499D01*
X3589894Y4954461D01*
X3582861Y4961494D01*
X3581400Y4962099D01*
D02*
G37*
G36*
X3556000D02*
X3554539Y4961494D01*
X3547506Y4954461D01*
X3546901Y4953000D01*
X3556000D01*
Y4962099D01*
D02*
G37*
G36*
X3086100Y4949399D02*
Y4940300D01*
X3095199D01*
X3094594Y4941761D01*
X3087561Y4948794D01*
X3086100Y4949399D01*
D02*
G37*
G36*
X3060700D02*
X3059239Y4948794D01*
X3052206Y4941761D01*
X3051601Y4940300D01*
X3060700D01*
Y4949399D01*
D02*
G37*
G36*
X3263900Y4936699D02*
Y4927600D01*
X3272999D01*
X3272394Y4929061D01*
X3265361Y4936094D01*
X3263900Y4936699D01*
D02*
G37*
G36*
X3238500D02*
X3237039Y4936094D01*
X3230006Y4929061D01*
X3229401Y4927600D01*
X3238500D01*
Y4936699D01*
D02*
G37*
G36*
X3590499Y4927600D02*
X3581400D01*
Y4918501D01*
X3582861Y4919106D01*
X3589894Y4926139D01*
X3590499Y4927600D01*
D02*
G37*
G36*
X3556000D02*
X3546901D01*
X3547506Y4926139D01*
X3554539Y4919106D01*
X3556000Y4918501D01*
Y4927600D01*
D02*
G37*
G36*
X3095199Y4914900D02*
X3086100D01*
Y4905801D01*
X3087561Y4906406D01*
X3094594Y4913439D01*
X3095199Y4914900D01*
D02*
G37*
G36*
X3060700D02*
X3051601D01*
X3052206Y4913439D01*
X3059239Y4906406D01*
X3060700Y4905801D01*
Y4914900D01*
D02*
G37*
G36*
X3454400Y4911299D02*
Y4902200D01*
X3463499D01*
X3462894Y4903661D01*
X3455861Y4910694D01*
X3454400Y4911299D01*
D02*
G37*
G36*
X3429000D02*
X3427539Y4910694D01*
X3420506Y4903661D01*
X3419901Y4902200D01*
X3429000D01*
Y4911299D01*
D02*
G37*
G36*
X3272999Y4902200D02*
X3263900D01*
Y4893101D01*
X3265361Y4893706D01*
X3272394Y4900739D01*
X3272999Y4902200D01*
D02*
G37*
G36*
X3238500D02*
X3229401D01*
X3230006Y4900739D01*
X3237039Y4893706D01*
X3238500Y4893101D01*
Y4902200D01*
D02*
G37*
G36*
X3733800Y4885899D02*
Y4876800D01*
X3742899D01*
X3742294Y4878261D01*
X3735261Y4885294D01*
X3733800Y4885899D01*
D02*
G37*
G36*
X3708400D02*
X3706939Y4885294D01*
X3699906Y4878261D01*
X3699301Y4876800D01*
X3708400D01*
Y4885899D01*
D02*
G37*
G36*
X3463499Y4876800D02*
X3454400D01*
Y4867701D01*
X3455861Y4868306D01*
X3462894Y4875339D01*
X3463499Y4876800D01*
D02*
G37*
G36*
X3429000D02*
X3419901D01*
X3420506Y4875339D01*
X3427539Y4868306D01*
X3429000Y4867701D01*
Y4876800D01*
D02*
G37*
G36*
X3742899Y4851400D02*
X3733800D01*
Y4842301D01*
X3735261Y4842906D01*
X3742294Y4849939D01*
X3742899Y4851400D01*
D02*
G37*
G36*
X3708400D02*
X3699301D01*
X3699906Y4849939D01*
X3706939Y4842906D01*
X3708400Y4842301D01*
Y4851400D01*
D02*
G37*
G36*
X4254500Y4377899D02*
Y4368800D01*
X4263599D01*
X4262994Y4370261D01*
X4255961Y4377294D01*
X4254500Y4377899D01*
D02*
G37*
G36*
X4229100D02*
X4227639Y4377294D01*
X4220606Y4370261D01*
X4220001Y4368800D01*
X4229100D01*
Y4377899D01*
D02*
G37*
G36*
X4408361Y4373693D02*
Y4364594D01*
X4417460D01*
X4416855Y4366055D01*
X4409823Y4373088D01*
X4408361Y4373693D01*
D02*
G37*
G36*
X4382961D02*
X4381500Y4373088D01*
X4374468Y4366055D01*
X4373862Y4364594D01*
X4382961D01*
Y4373693D01*
D02*
G37*
G36*
X4263599Y4343400D02*
X4254500D01*
Y4334301D01*
X4255961Y4334906D01*
X4262994Y4341939D01*
X4263599Y4343400D01*
D02*
G37*
G36*
X4229100D02*
X4220001D01*
X4220606Y4341939D01*
X4227639Y4334906D01*
X4229100Y4334301D01*
Y4343400D01*
D02*
G37*
G36*
X4417460Y4339194D02*
X4408361D01*
Y4330095D01*
X4409823Y4330700D01*
X4416855Y4337732D01*
X4417460Y4339194D01*
D02*
G37*
G36*
X4382961D02*
X4373862D01*
X4374468Y4337732D01*
X4381500Y4330700D01*
X4382961Y4330095D01*
Y4339194D01*
D02*
G37*
G36*
X4419600Y4225499D02*
Y4216400D01*
X4428699D01*
X4428094Y4217861D01*
X4421061Y4224894D01*
X4419600Y4225499D01*
D02*
G37*
G36*
X4394200D02*
X4392739Y4224894D01*
X4385706Y4217861D01*
X4385101Y4216400D01*
X4394200D01*
Y4225499D01*
D02*
G37*
G36*
X4428699Y4191000D02*
X4419600D01*
Y4181901D01*
X4421061Y4182506D01*
X4428094Y4189539D01*
X4428699Y4191000D01*
D02*
G37*
G36*
X4394200D02*
X4385101D01*
X4385706Y4189539D01*
X4392739Y4182506D01*
X4394200Y4181901D01*
Y4191000D01*
D02*
G37*
G36*
X4572000Y4161999D02*
Y4152900D01*
X4581099D01*
X4580494Y4154361D01*
X4573461Y4161394D01*
X4572000Y4161999D01*
D02*
G37*
G36*
X4546600D02*
X4545139Y4161394D01*
X4538106Y4154361D01*
X4537501Y4152900D01*
X4546600D01*
Y4161999D01*
D02*
G37*
G36*
X4581099Y4127500D02*
X4572000D01*
Y4118401D01*
X4573461Y4119006D01*
X4580494Y4126039D01*
X4581099Y4127500D01*
D02*
G37*
G36*
X4546600D02*
X4537501D01*
X4538106Y4126039D01*
X4545139Y4119006D01*
X4546600Y4118401D01*
Y4127500D01*
D02*
G37*
G36*
X4619199Y4034999D02*
Y4025900D01*
X4628298D01*
X4627693Y4027361D01*
X4620660Y4034394D01*
X4619199Y4034999D01*
D02*
G37*
G36*
X4593799D02*
X4592338Y4034394D01*
X4585305Y4027361D01*
X4584700Y4025900D01*
X4593799D01*
Y4034999D01*
D02*
G37*
G36*
X4628298Y4000500D02*
X4619199D01*
Y3991401D01*
X4620660Y3992006D01*
X4627693Y3999039D01*
X4628298Y4000500D01*
D02*
G37*
G36*
X4593799D02*
X4584700D01*
X4585305Y3999039D01*
X4592338Y3992006D01*
X4593799Y3991401D01*
Y4000500D01*
D02*
G37*
%LPD*%
D28*
X393699Y2222500D02*
G03*
X395750Y2210849I63293J5131D01*
G01*
X1473236Y1838770D02*
G03*
X1473110Y1838942I-51373J-37324D01*
G01*
X1261357Y2343922D02*
G03*
X1261361Y2343902I62173J12916D01*
G01*
X2343902Y1261361D02*
G03*
X2343922Y1261357I12936J62169D01*
G01*
X2412455Y3987255D02*
X2578100Y4152900D01*
Y4356100D01*
X1686992Y3987255D02*
X2412455D01*
X1303028Y652772D02*
X1962052D01*
X1992525Y622300D01*
X3086100D01*
X4686300Y1663700D02*
X4851400D01*
X4214104D02*
X4686300D01*
Y1870550D01*
X3718804Y1168400D02*
X4214104Y1663700D01*
X3505200Y1168400D02*
X3718804D01*
X3416300Y469900D02*
Y901700D01*
X3342550Y975450D02*
X3416300Y901700D01*
X3475578Y977900D02*
X4075797D01*
X3471172Y1086250D02*
X3891072D01*
X1727200Y812800D02*
X1924450Y1010050D01*
X3891072Y1086250D02*
X3985922Y1181100D01*
X3426322Y1131100D02*
X3471172Y1086250D01*
X2822078Y1131100D02*
X3426322D01*
X2701028Y1010050D02*
X2822078Y1131100D01*
X2540000Y876300D02*
X3096455D01*
X3277756Y1057600D02*
X3395878D01*
X3096455Y876300D02*
X3277756Y1057600D01*
X3395878D02*
X3475578Y977900D01*
X1924450Y1010050D02*
X2701028D01*
X3985922Y1181100D02*
X4089400D01*
X2590800Y165100D02*
X2657000Y231300D01*
X3177700D01*
X3416300Y469900D01*
X1016000Y939800D02*
X1303028Y652772D01*
X1016000Y939800D02*
Y2857500D01*
Y3420208D01*
X3389095Y4112995D02*
X3390900Y4114800D01*
Y4673600D01*
X3389095Y3913405D02*
Y4112995D01*
X2679700Y4127500D02*
X2730500Y4076700D01*
X3022600D01*
X1016000Y3420208D02*
X1723292Y4127500D01*
X2336800D01*
X3251200Y4305300D02*
Y4521200D01*
X3022600Y4076700D02*
X3251200Y4305300D01*
X1117600Y3417863D02*
X1686992Y3987255D01*
X1117600Y2070100D02*
Y3417863D01*
Y2070100D02*
X1458379Y1729321D01*
X1513722Y1660715D02*
X1823785Y1350652D01*
X1887848D01*
X1531983Y304800D02*
X2895600D01*
X3225800Y635000D01*
X2444733Y69866D02*
X2541203Y64449D01*
X1442638Y347826D02*
X1531983Y304800D01*
X2298700Y215900D02*
X2427593Y87006D01*
X1317486Y416995D02*
X1442638Y347826D01*
X2427593Y87006D02*
X2444733Y69866D01*
X1479304Y1700804D02*
Y1706685D01*
Y1700804D02*
X1513722Y1666387D01*
Y1660715D02*
Y1666387D01*
X1458379Y1727611D02*
Y1729321D01*
Y1727611D02*
X1479304Y1706685D01*
X664974Y967992D02*
X760260Y861368D01*
X575819Y1079790D02*
X664974Y967992D01*
X416995Y1317486D02*
X493072Y1196410D01*
X393700Y1359636D02*
X416995Y1317486D01*
X393700Y1359636D02*
Y2003501D01*
X395750Y2005551D01*
X395750Y2210849D02*
X395750Y2005551D01*
X377151Y2239049D02*
X393699Y2222500D01*
X760260Y861368D02*
X861368Y760260D01*
X493072Y1196410D02*
X575819Y1079790D01*
X254000Y2362200D02*
X377151Y2239049D01*
X1194957Y494103D02*
X1196410Y493072D01*
X1317486Y416995D01*
X1079790Y575819D02*
X1194957Y494103D01*
X861368Y760260D02*
X967992Y664974D01*
X1079790Y575819D01*
X3225800Y635000D02*
Y647700D01*
X1143000Y1752600D02*
X1778000Y1117600D01*
X1866900D01*
X2578100Y4356100D02*
Y4800600D01*
X1579404Y1702657D02*
X1596241Y1682140D01*
X1682140Y1596241D02*
X1702657Y1579404D01*
X1533320Y1756614D02*
X1579404Y1702657D01*
X1596241Y1682140D02*
X1682140Y1596241D01*
X1702657Y1579404D02*
X1756612Y1533321D01*
X1758055Y1531879D02*
X1772676Y1519602D01*
X1413362Y1933980D02*
X1414826Y1932516D01*
X2244567Y1284713D02*
X2246638D01*
X1405333Y1948008D02*
X1410446Y1939663D01*
X2238309Y1286712D02*
X2244567Y1284713D01*
X1783954Y1513062D02*
X1783954D01*
X1772676Y1519602D02*
X1783954Y1513062D01*
X2228971Y1288954D02*
X2238309Y1286712D01*
X1410446Y1939663D02*
X1413362Y1933980D01*
X1523304Y1768340D02*
X1531879Y1758055D01*
X1513062Y1783954D02*
Y1783954D01*
X1531879Y1758055D02*
X1533320Y1756614D01*
X1513062Y1783954D02*
X1523304Y1768340D01*
X1756612Y1533321D02*
X1758055Y1531879D01*
X1206500Y2755900D02*
X1235950Y2726450D01*
Y2435243D02*
Y2726450D01*
Y2435243D02*
X1235950Y2435243D01*
Y2408950D02*
Y2435243D01*
X1511300Y812800D02*
X1727200D01*
X2082800Y1155700D02*
X2603500D01*
X1887848Y1350652D02*
X2082800Y1155700D01*
X2603500D02*
X2667000Y1092200D01*
X1286614Y2238716D02*
X1289549Y2226491D01*
X1291084Y2224956D01*
X1314707Y2152254D01*
X1314707Y2152254D02*
X1316887Y2145544D01*
Y2143447D02*
Y2145544D01*
Y2143447D02*
X1320047Y2135818D01*
X1323259Y2125934D01*
X1324765Y2124427D01*
X1353603Y2054806D01*
X1353604Y2054805D02*
X1356732Y2047253D01*
Y2045123D02*
Y2047253D01*
Y2045123D02*
X1361447Y2035869D01*
X1364610Y2028234D01*
X1366093Y2026751D01*
X1369295Y2020465D01*
Y2020465D02*
X1404001Y1952352D01*
X1405333Y1948008D01*
X1414826Y1932516D02*
X1453079Y1870093D01*
X1453079Y1870092D02*
X1458403Y1861405D01*
Y1859187D02*
Y1861405D01*
Y1859187D02*
X1467089Y1847230D01*
X1469228Y1843740D01*
X1470678Y1842290D01*
X1473110Y1838942D01*
X1473236Y1838770D02*
X1513062Y1783954D01*
X1783954Y1513062D02*
X1838770Y1473236D01*
X1838771Y1473236D02*
X1842289Y1470679D01*
X1843740Y1469228D01*
X1847216Y1467098D01*
X1859187Y1458403D01*
X1861405D01*
X1870092Y1453079D01*
Y1453079D02*
X1932516Y1414826D01*
X1933980Y1413362D01*
X1939465Y1410567D01*
X1950182Y1404001D01*
X1952352D01*
X1960559Y1399819D01*
X1960559Y1399819D02*
X2020465Y1369295D01*
X1235950Y2408950D02*
X1253902Y2390997D01*
X2020465Y1369295D02*
X2026751Y1366093D01*
X1253902Y2390997D02*
X1259726Y2354229D01*
X2026751Y1366093D02*
X2028234Y1364610D01*
X1259726Y2354229D02*
X1260407Y2349932D01*
X2028234Y1364610D02*
X2035861Y1361451D01*
X1260407Y2347880D02*
Y2349932D01*
X2035861Y1361451D02*
X2045123Y1356732D01*
X1260407Y2347880D02*
X1261357Y2343922D01*
X2045123Y1356732D02*
X2047253D01*
X2054805Y1353604D01*
X1261361Y2343902D02*
X1263674Y2329304D01*
X2054806Y1353603D02*
X2124427Y1324765D01*
X1263674Y2329304D02*
X1265243Y2327734D01*
X2124427Y1324765D02*
X2125933Y1323259D01*
X1265243Y2327734D02*
X1267621Y2317828D01*
X2125933Y1323259D02*
X2135812Y1320049D01*
X1267621Y2317827D02*
X1283357Y2252285D01*
X2135812Y1320049D02*
X2143445Y1316888D01*
X1283357Y2252285D02*
X1284713Y2246638D01*
X2143445Y1316888D02*
X2145544Y1316887D01*
X1284713Y2244567D02*
Y2246638D01*
X2145544Y1316887D02*
X2152254Y1314707D01*
X1284713Y2244567D02*
X1286614Y2238716D01*
X2152254Y1314707D02*
X2224956Y1291084D01*
X2228971Y1288954D01*
X2246638Y1284713D02*
X2252285Y1283357D01*
X2252285D02*
X2317827Y1267621D01*
X2317828D02*
X2327734Y1265243D01*
X2329303Y1263674D01*
X2343902Y1261361D01*
X2343922Y1261357D02*
X2347880Y1260407D01*
X2349932D01*
X2354229Y1259726D01*
X2354229D02*
X2390998Y1253902D01*
X2408951Y1235950D01*
X2435244Y1235950D01*
X3012157D01*
X3071607Y1295400D01*
X3327400D01*
X3907913Y416995D02*
X3980512Y462612D01*
X3782761Y347826D02*
X3907913Y416995D01*
X3980512Y462612D02*
X4305300Y787400D01*
X3249441Y144247D02*
X3251153Y144740D01*
X3110034Y112429D02*
X3249441Y144247D01*
X2969061Y88476D02*
X3110034Y112429D01*
X2826966Y72466D02*
X2969061Y88476D01*
X2684197Y64449D02*
X2826966Y72466D01*
X2541203Y64449D02*
X2684197D01*
X3251153Y144740D02*
X3386849Y183834D01*
X3521818Y231061D01*
X3653928Y285783D01*
X3782761Y347826D01*
D33*
X254000Y2108200D02*
D03*
D34*
Y2362200D02*
D03*
Y2616200D02*
D03*
Y2870200D02*
D03*
Y3124200D02*
D03*
X4762800Y2727000D02*
D03*
Y2473000D02*
D03*
X5016800D02*
D03*
D35*
X1754405Y3824505D02*
D03*
X1574800Y3644900D02*
D03*
X2311400Y4597400D02*
D03*
Y4851400D02*
D03*
D36*
X1395195Y3465295D02*
D03*
D37*
X4254800Y1992383D02*
D03*
Y3208541D02*
D03*
D38*
X5016800Y2727000D02*
D03*
D39*
X2844800Y4838700D02*
D03*
D40*
X2844800Y4584700D02*
D03*
X2844800Y4330700D02*
D03*
X3568700Y3733800D02*
D03*
X3748305Y3554195D02*
D03*
D41*
X2311400Y4343400D02*
D03*
D42*
X4267200Y4076700D02*
D03*
X3913647Y4430253D02*
D03*
X1206500Y4356100D02*
D03*
X852947Y4002547D02*
D03*
D43*
X3389095Y3913405D02*
D03*
D44*
X650000Y2600000D02*
D03*
D45*
X4750000Y3750000D02*
D03*
X4875000Y3500000D02*
D03*
X4625000D02*
D03*
X4500000Y3250000D02*
D03*
X4375000Y3500000D02*
D03*
X4250000Y2750000D02*
D03*
Y2250000D02*
D03*
X4125000Y3500000D02*
D03*
X4000000Y3250000D02*
D03*
X4125000Y3000000D02*
D03*
Y2500000D02*
D03*
X4000000Y2250000D02*
D03*
Y1750000D02*
D03*
X3875000Y2000000D02*
D03*
X3750000Y1750000D02*
D03*
X2625000Y500000D02*
D03*
X2000000Y4250000D02*
D03*
X1125000Y1500000D02*
D03*
X500000Y3750000D02*
D03*
X375000Y3500000D02*
D03*
D46*
X4559300Y4140200D02*
D03*
X4241800Y4356100D02*
D03*
X4395661Y4351894D02*
D03*
X4406900Y4203700D02*
D03*
X1701800Y1333500D02*
D03*
X3334150Y756050D02*
D03*
X2159000Y495300D02*
D03*
X3454400Y317500D02*
D03*
X533400Y3581400D02*
D03*
X3911181Y1244600D02*
D03*
X3342550Y975450D02*
D03*
X3282316Y1213250D02*
D03*
X3505200Y1168400D02*
D03*
X2590800Y165100D02*
D03*
X1390387Y482600D02*
D03*
X914400Y1181100D02*
D03*
X1193800Y990600D02*
D03*
X3390900Y4673600D02*
D03*
X3441700Y4889500D02*
D03*
X3251200Y4914900D02*
D03*
X3073400Y4927600D02*
D03*
Y5054600D02*
D03*
X3225800Y5029200D02*
D03*
X3441700Y4991100D02*
D03*
X3568700Y4940300D02*
D03*
X3721100Y4864100D02*
D03*
X4606499Y4013200D02*
D03*
X2679700Y4127500D02*
D03*
X2336800D02*
D03*
X3251200Y4521200D02*
D03*
X825500Y1625600D02*
D03*
Y1536700D02*
D03*
X2298700Y215900D02*
D03*
X3225800Y647700D02*
D03*
X2019300Y482600D02*
D03*
X825500Y1714500D02*
D03*
X1143000Y1752600D02*
D03*
X1866900Y1117600D02*
D03*
X1879600Y965200D02*
D03*
X2578100Y4800600D02*
D03*
Y4356100D02*
D03*
X1206500Y2755900D02*
D03*
X1016000Y2857500D02*
D03*
X1511300Y812800D02*
D03*
X2667000Y1092200D02*
D03*
X3302000Y1320800D02*
D03*
X4305300Y787400D02*
D03*
X3086100Y622300D02*
D03*
X4089400Y1181100D02*
D03*
X3987800Y1066800D02*
D03*
X4075797Y977900D02*
D03*
X2171700Y749300D02*
D03*
X2540000Y876300D02*
D03*
X3416300Y469900D02*
D03*
X4775200Y1778000D02*
D03*
X4851400Y1663700D02*
D03*
X4686300Y1870550D02*
D03*
X4927600Y1866900D02*
D03*
D47*
X876300Y914400D02*
X928475D01*
X1269953Y572922D01*
X1928978D01*
X2019300Y482600D01*
%TF.MD5,3999a8571e5a7af6560eb954450fb1eb*%
M02*
