%TF.GenerationSoftware,Altium Limited,Altium Designer,22.1.2 (22)*%
G04 Layer_Color=0*
%FSLAX45Y45*%
%MOMM*%
%TF.SameCoordinates,A05C4332-DD78-49BD-A17D-671ED2E2A3CF*%
%TF.FilePolarity,Positive*%
%TF.FileFunction,NonPlated,1,4,NPTH,Drill*%
%TF.Part,Single*%
G01*
G75*
%TA.AperFunction,ComponentDrill*%
%ADD83C,3.20000*%
G36*
X2612700Y1287700D02*
X2560640D01*
X2456842Y1295869D01*
X2354006Y1312157D01*
X2252764Y1336463D01*
X2153741Y1368637D01*
X2057548Y1408482D01*
X1964777Y1455751D01*
X1876001Y1510153D01*
X1791767Y1571352D01*
X1712595Y1638972D01*
X1638972Y1712595D01*
X1571352Y1791767D01*
X1510153Y1876001D01*
X1455751Y1964777D01*
X1408482Y2057548D01*
X1368637Y2153741D01*
X1336463Y2252764D01*
X1312157Y2354006D01*
X1295869Y2456842D01*
X1287700Y2560640D01*
X1287700Y2612700D01*
Y2664759D01*
X1295869Y2768557D01*
X1312157Y2871394D01*
X1336463Y2972636D01*
X1368637Y3071659D01*
X1408482Y3167852D01*
X1455751Y3260622D01*
X1510153Y3349398D01*
X1571352Y3433632D01*
X1638972Y3512805D01*
X1712595Y3586428D01*
X1791767Y3654048D01*
X1876001Y3715247D01*
X1964777Y3769649D01*
X2057548Y3816918D01*
X2153741Y3856762D01*
X2252764Y3888937D01*
X2354006Y3913243D01*
X2456842Y3929531D01*
X2560640Y3937700D01*
X2612700D01*
X2664759D01*
X2768557Y3929531D01*
X2871394Y3913243D01*
X2972636Y3888937D01*
X3071659Y3856762D01*
X3167852Y3816918D01*
X3260622Y3769649D01*
X3349398Y3715247D01*
X3433632Y3654048D01*
X3512805Y3586428D01*
X3586428Y3512805D01*
X3654048Y3433632D01*
X3715247Y3349398D01*
X3769649Y3260622D01*
X3816918Y3167852D01*
X3856762Y3071659D01*
X3888937Y2972636D01*
X3913243Y2871394D01*
X3929531Y2768557D01*
X3937700Y2664759D01*
Y2612700D01*
Y2560640D01*
X3929531Y2456842D01*
X3913243Y2354006D01*
X3888937Y2252764D01*
X3856762Y2153741D01*
X3816918Y2057548D01*
X3769649Y1964777D01*
X3715247Y1876001D01*
X3654048Y1791767D01*
X3586428Y1712595D01*
X3512805Y1638972D01*
X3433632Y1571352D01*
X3349398Y1510153D01*
X3260622Y1455751D01*
X3167852Y1408482D01*
X3071659Y1368637D01*
X2972636Y1336463D01*
X2871394Y1312157D01*
X2768557Y1295869D01*
X2664759Y1287700D01*
X2612700Y1287700D01*
D01*
D02*
G37*
D83*
X4254800Y1992383D02*
D03*
Y3208541D02*
D03*
%TF.MD5,da6953284f4407a020804cabd2ce6317*%
M02*
