%TF.GenerationSoftware,Altium Limited,Altium Designer,22.1.2 (22)*%
G04 Layer_Color=65535*
%FSLAX45Y45*%
%MOMM*%
%TF.SameCoordinates,A05C4332-DD78-49BD-A17D-671ED2E2A3CF*%
%TF.FilePolarity,Positive*%
%TF.FileFunction,Legend,Top*%
%TF.Part,Single*%
G01*
G75*
%TA.AperFunction,NonConductor*%
%ADD48C,0.25400*%
%ADD62C,0.20000*%
%ADD63C,0.10000*%
D48*
X3950991Y1992383D02*
G03*
X4558609Y1992383I303809J-991D01*
G01*
X4559600Y3208541D02*
G03*
X3950000Y3208541I-304800J1058D01*
G01*
X4559600Y1992383D02*
Y3208541D01*
X3951983Y1992383D02*
Y2295200D01*
X3950000Y2904800D02*
Y3208541D01*
X3543600Y2904800D02*
X3950000D01*
X3543600Y2295200D02*
X3951983D01*
X3543600D02*
Y2904800D01*
X3289308Y4889517D02*
Y4991083D01*
X3263917Y5016475D01*
X3213133D01*
X3187741Y4991083D01*
Y4889517D01*
X3213133Y4864125D01*
X3263917D01*
X3238525Y4914908D02*
X3289308Y4864125D01*
X3263917D02*
X3289308Y4889517D01*
X3340092Y4991083D02*
X3365484Y5016475D01*
X3416267D01*
X3441659Y4991083D01*
Y4965692D01*
X3416267Y4940300D01*
X3390875D01*
X3416267D01*
X3441659Y4914908D01*
Y4889517D01*
X3416267Y4864125D01*
X3365484D01*
X3340092Y4889517D01*
X292108Y3454375D02*
X241325D01*
X266717D01*
Y3327417D01*
X241325Y3302025D01*
X215933D01*
X190541Y3327417D01*
X444459Y3302025D02*
X342892D01*
X444459Y3403592D01*
Y3428983D01*
X419067Y3454375D01*
X368284D01*
X342892Y3428983D01*
X876333Y2552675D02*
Y2425717D01*
X901725Y2400325D01*
X952508D01*
X977900Y2425717D01*
Y2552675D01*
X1028684Y2400325D02*
X1079467D01*
X1054076D01*
Y2552675D01*
X1028684Y2527283D01*
X1841500Y4305317D02*
Y4406883D01*
X1816108Y4432275D01*
X1765325D01*
X1739933Y4406883D01*
Y4305317D01*
X1765325Y4279925D01*
X1816108D01*
X1790717Y4330708D02*
X1841500Y4279925D01*
X1816108D02*
X1841500Y4305317D01*
X1892284Y4279925D02*
X1943067D01*
X1917676D01*
Y4432275D01*
X1892284Y4406883D01*
X1342351Y1181288D02*
X1210411Y1257463D01*
X1248499Y1323433D01*
X1283185Y1332727D01*
X1327164Y1307335D01*
X1336459Y1272649D01*
X1298371Y1206680D01*
X1323763Y1250659D02*
X1393134Y1269248D01*
X1418526Y1313227D02*
X1443918Y1357207D01*
X1431222Y1335218D01*
X1299282Y1411393D01*
X1308577Y1376707D01*
X1372056Y1486657D02*
X1362762Y1521342D01*
X1388153Y1565322D01*
X1422839Y1574616D01*
X1444829Y1561921D01*
X1454123Y1527235D01*
X1441427Y1505245D01*
X1454123Y1527235D01*
X1488809Y1536529D01*
X1510799Y1523833D01*
X1520093Y1489147D01*
X1494701Y1445167D01*
X1460015Y1435873D01*
X1105384Y1421627D02*
X1070698Y1412333D01*
X1045307Y1368353D01*
X1054601Y1333667D01*
X1142560Y1282884D01*
X1177246Y1292178D01*
X1202638Y1336158D01*
X1193344Y1370843D01*
X1240726Y1402127D02*
X1266118Y1446107D01*
X1253422Y1424117D01*
X1121482Y1500293D01*
X1130776Y1465607D01*
X1194256Y1575556D02*
X1184962Y1610242D01*
X1210353Y1654222D01*
X1245039Y1663516D01*
X1332999Y1612733D01*
X1342293Y1578047D01*
X1316901Y1534067D01*
X1282215Y1524773D01*
X1194256Y1575556D01*
X933924Y1514702D02*
X899238Y1505408D01*
X873847Y1461428D01*
X883141Y1426742D01*
X971100Y1375959D01*
X1005786Y1385253D01*
X1031178Y1429233D01*
X1021884Y1463918D01*
X1047276Y1507898D02*
X1081962Y1517192D01*
X1107354Y1561172D01*
X1098060Y1595858D01*
X1010100Y1646642D01*
X975414Y1637347D01*
X950022Y1593368D01*
X959316Y1558682D01*
X981306Y1545986D01*
X1015992Y1555280D01*
X1054080Y1621250D01*
X2933708Y215883D02*
X2908317Y241275D01*
X2857533D01*
X2832141Y215883D01*
Y114317D01*
X2857533Y88925D01*
X2908317D01*
X2933708Y114317D01*
X3086059Y241275D02*
X2984492D01*
Y165100D01*
X3035275Y190492D01*
X3060667D01*
X3086059Y165100D01*
Y114317D01*
X3060667Y88925D01*
X3009884D01*
X2984492Y114317D01*
X1494417Y456719D02*
X1485123Y491405D01*
X1441143Y516797D01*
X1406457Y507503D01*
X1355674Y419543D01*
X1364968Y384857D01*
X1408948Y359466D01*
X1443634Y368760D01*
X1474918Y321378D02*
X1518897Y295986D01*
X1496908Y308682D01*
X1573083Y440622D01*
X1538397Y431328D01*
X1584867Y257899D02*
X1628847Y232507D01*
X1606857Y245203D01*
X1683032Y377142D01*
X1648347Y367848D01*
X3247262Y1094390D02*
X3337036Y1004617D01*
X3372945D01*
X3408854Y1040526D01*
Y1076436D01*
X3319081Y1166209D01*
X3534538D02*
X3462719Y1094390D01*
Y1238028D01*
X3444764Y1255983D01*
X3408854D01*
X3372945Y1220074D01*
Y1184164D01*
X546108Y3619483D02*
X520717Y3644875D01*
X469933D01*
X444541Y3619483D01*
Y3517917D01*
X469933Y3492525D01*
X520717D01*
X546108Y3517917D01*
X698459Y3492525D02*
X596892D01*
X698459Y3594092D01*
Y3619483D01*
X673067Y3644875D01*
X622284D01*
X596892Y3619483D01*
X3289308Y4381517D02*
Y4483083D01*
X3263917Y4508475D01*
X3213133D01*
X3187741Y4483083D01*
Y4381517D01*
X3213133Y4356125D01*
X3263917D01*
X3238525Y4406908D02*
X3289308Y4356125D01*
X3263917D02*
X3289308Y4381517D01*
X3416267Y4356125D02*
Y4508475D01*
X3340092Y4432300D01*
X3441659D01*
X1604538Y1539149D02*
X1541059Y1429200D01*
X1550353Y1394514D01*
X1594333Y1369122D01*
X1629019Y1378416D01*
X1692498Y1488366D01*
X1824438Y1412190D02*
X1736478Y1462974D01*
X1698390Y1397004D01*
X1755066Y1393602D01*
X1777056Y1380906D01*
X1786350Y1346220D01*
X1760958Y1302240D01*
X1726272Y1292946D01*
X1682293Y1318338D01*
X1672998Y1353024D01*
X4009262Y1399191D02*
X4099036Y1309417D01*
X4134946D01*
X4170855Y1345326D01*
Y1381236D01*
X4081081Y1471010D01*
X4278583Y1453055D02*
X4170855Y1560783D01*
Y1453055D01*
X4242674Y1524874D01*
X3048041Y469875D02*
Y342917D01*
X3073433Y317525D01*
X3124217D01*
X3149608Y342917D01*
Y469875D01*
X3200392Y444483D02*
X3225784Y469875D01*
X3276567D01*
X3301959Y444483D01*
Y419092D01*
X3276567Y393700D01*
X3251175D01*
X3276567D01*
X3301959Y368308D01*
Y342917D01*
X3276567Y317525D01*
X3225784D01*
X3200392Y342917D01*
X3022662Y533425D02*
Y685775D01*
X3098837D01*
X3124229Y660383D01*
Y609600D01*
X3098837Y584208D01*
X3022662D01*
X3073445D02*
X3124229Y533425D01*
X3175012D02*
X3225796D01*
X3200404D01*
Y685775D01*
X3175012Y660383D01*
X3403539Y533425D02*
X3301971D01*
X3403539Y634992D01*
Y660383D01*
X3378147Y685775D01*
X3327363D01*
X3301971Y660383D01*
X4699041Y3327425D02*
Y3479775D01*
X4775217D01*
X4800608Y3454383D01*
Y3403600D01*
X4775217Y3378208D01*
X4699041D01*
X4749825D02*
X4800608Y3327425D01*
X4851392Y3454383D02*
X4876784Y3479775D01*
X4927567D01*
X4952959Y3454383D01*
Y3428992D01*
X4927567Y3403600D01*
X4952959Y3378208D01*
Y3352817D01*
X4927567Y3327425D01*
X4876784D01*
X4851392Y3352817D01*
Y3378208D01*
X4876784Y3403600D01*
X4851392Y3428992D01*
Y3454383D01*
X4876784Y3403600D02*
X4927567D01*
X3619541Y4699025D02*
Y4851375D01*
X3695717D01*
X3721108Y4825983D01*
Y4775200D01*
X3695717Y4749808D01*
X3619541D01*
X3670325D02*
X3721108Y4699025D01*
X3771892Y4851375D02*
X3873459D01*
Y4825983D01*
X3771892Y4724417D01*
Y4699025D01*
X2514641Y5029225D02*
Y5181575D01*
X2590817D01*
X2616208Y5156183D01*
Y5105400D01*
X2590817Y5080008D01*
X2514641D01*
X2565425D02*
X2616208Y5029225D01*
X2768559Y5181575D02*
X2717775Y5156183D01*
X2666992Y5105400D01*
Y5054617D01*
X2692384Y5029225D01*
X2743167D01*
X2768559Y5054617D01*
Y5080008D01*
X2743167Y5105400D01*
X2666992D01*
X2387641Y3987825D02*
Y4140175D01*
X2463817D01*
X2489208Y4114783D01*
Y4064000D01*
X2463817Y4038608D01*
X2387641D01*
X2438425D02*
X2489208Y3987825D01*
X2641559Y4140175D02*
X2539992D01*
Y4064000D01*
X2590775Y4089392D01*
X2616167D01*
X2641559Y4064000D01*
Y4013217D01*
X2616167Y3987825D01*
X2565384D01*
X2539992Y4013217D01*
X772160Y3197860D02*
Y3350211D01*
X848335D01*
X873727Y3324819D01*
Y3274035D01*
X848335Y3248643D01*
X772160D01*
X822943D02*
X873727Y3197860D01*
X1000686D02*
Y3350211D01*
X924511Y3274035D01*
X1026078D01*
X3022641Y1155725D02*
Y1308075D01*
X3098817D01*
X3124208Y1282683D01*
Y1231900D01*
X3098817Y1206508D01*
X3022641D01*
X3073425D02*
X3124208Y1155725D01*
X3174992Y1282683D02*
X3200384Y1308075D01*
X3251167D01*
X3276559Y1282683D01*
Y1257292D01*
X3251167Y1231900D01*
X3225775D01*
X3251167D01*
X3276559Y1206508D01*
Y1181117D01*
X3251167Y1155725D01*
X3200384D01*
X3174992Y1181117D01*
X3779346Y1614217D02*
X3671617Y1721946D01*
X3725481Y1775810D01*
X3761391D01*
X3797300Y1739900D01*
Y1703991D01*
X3743436Y1650126D01*
X3779346Y1686036D02*
X3851164D01*
X3887074Y1721946D02*
X3922983Y1757855D01*
X3905029Y1739900D01*
X3797300Y1847629D01*
Y1811719D01*
X1790708Y4864117D02*
Y4965683D01*
X1765317Y4991075D01*
X1714533D01*
X1689141Y4965683D01*
Y4864117D01*
X1714533Y4838725D01*
X1765317D01*
X1739925Y4889508D02*
X1790708Y4838725D01*
X1765317D02*
X1790708Y4864117D01*
X1943059Y4838725D02*
X1841492D01*
X1943059Y4940292D01*
Y4965683D01*
X1917667Y4991075D01*
X1866884D01*
X1841492Y4965683D01*
X4546641Y3721075D02*
X4495858D01*
X4470466Y3695683D01*
Y3594117D01*
X4495858Y3568725D01*
X4546641D01*
X4572033Y3594117D01*
Y3695683D01*
X4546641Y3721075D01*
X4622817Y3568725D02*
Y3721075D01*
X4698992D01*
X4724384Y3695683D01*
Y3644900D01*
X4698992Y3619508D01*
X4622817D01*
X4775167Y3721075D02*
X4876734D01*
X4825951D01*
Y3568725D01*
X4622808Y3949675D02*
X4572025D01*
X4597417D01*
Y3822717D01*
X4572025Y3797325D01*
X4546633D01*
X4521241Y3822717D01*
X4673592Y3924283D02*
X4698984Y3949675D01*
X4749767D01*
X4775159Y3924283D01*
Y3898892D01*
X4749767Y3873500D01*
X4724375D01*
X4749767D01*
X4775159Y3848108D01*
Y3822717D01*
X4749767Y3797325D01*
X4698984D01*
X4673592Y3822717D01*
X495300Y3860775D02*
X444517D01*
X469908D01*
Y3733817D01*
X444517Y3708425D01*
X419125D01*
X393733Y3733817D01*
X546084Y3708425D02*
X596867D01*
X571476D01*
Y3860775D01*
X546084Y3835383D01*
X2075857Y526251D02*
X2060422Y558674D01*
X2012563Y575661D01*
X1980141Y560224D01*
X1946168Y464508D01*
X1961604Y432085D01*
X2009462Y415099D01*
X2041885Y430535D01*
X2123716Y509265D02*
X2156138Y524701D01*
X2203997Y507715D01*
X2219433Y475292D01*
X2210940Y451363D01*
X2178517Y435927D01*
X2193953Y403504D01*
X2185460Y379575D01*
X2153037Y364139D01*
X2105179Y381126D01*
X2089743Y413548D01*
X2098236Y437477D01*
X2130659Y452913D01*
X2115223Y485336D01*
X2123716Y509265D01*
X2130659Y452913D02*
X2178517Y435927D01*
X3394318Y310684D02*
X3359633Y319978D01*
X3315653Y294586D01*
X3306359Y259900D01*
X3357142Y171941D01*
X3391828Y162647D01*
X3435808Y188038D01*
X3445102Y222724D01*
X3425602Y358066D02*
X3513562Y408849D01*
X3526258Y386859D01*
X3489082Y248116D01*
X3501778Y226126D01*
X531203Y1476480D02*
X501788Y1497077D01*
X451776Y1488258D01*
X431179Y1458843D01*
X448816Y1358819D01*
X478231Y1338222D01*
X528243Y1347041D01*
X548840Y1376456D01*
X603261Y1360268D02*
X653273Y1369087D01*
X628267Y1364677D01*
X601812Y1514714D01*
X581215Y1485299D01*
D62*
X127000Y3251200D02*
X381000D01*
Y1981200D02*
Y3251200D01*
X127000Y1981200D02*
Y3251200D01*
Y1981200D02*
X381000D01*
X476300Y2330800D02*
X606300D01*
X701100Y1694100D02*
Y2344500D01*
Y1694100D02*
X1051500D01*
Y2344500D01*
X701100D02*
X1051500D01*
X976235Y3498175D02*
X1202155Y3272255D01*
X976235Y3498175D02*
X1721525Y4243466D01*
X2053158Y3911833D01*
X3368617Y920680D02*
X3453470Y1005533D01*
X4498619Y946052D02*
X4606453Y1053886D01*
X4118196Y1276978D02*
X4464678Y930496D01*
X3891922Y1050704D02*
X4118196Y1276978D01*
X3891922Y1050704D02*
X4238404Y704222D01*
X4464678Y930496D01*
X2697800Y4079700D02*
X3137800D01*
Y5089700D01*
X2844800D02*
X3137800D01*
X1991900Y5124400D02*
X2460900Y5124400D01*
X1991900Y5124400D02*
X1991900Y4070400D01*
X2311400D01*
X1542556Y1336984D02*
X1674625Y1260735D01*
X1453436Y807624D02*
X1698436Y1231976D01*
X1453436Y807624D02*
X1730564Y647624D01*
X1975564Y1071976D01*
X1698436Y1231976D02*
X1975564Y1071976D01*
X2486100Y304100D02*
X2806100D01*
X2486100D02*
Y1169100D01*
X2806100D01*
Y304100D02*
Y1169100D01*
X2841100Y288100D02*
X2993600Y288100D01*
X3821845Y3272766D02*
X4132971Y3583893D01*
X3418794Y4298071D02*
X4132971Y3583893D01*
X3211611Y4090889D02*
X3418794Y4298071D01*
D63*
X3454027Y4324187D02*
X4161134Y3617081D01*
X3454027Y4324187D02*
X3984357Y4854518D01*
X4691464Y4147411D01*
X4161134Y3617081D02*
X4691464Y4147411D01*
X959012Y3542927D02*
X1666119Y4250034D01*
X428682Y4073258D02*
X959012Y3542927D01*
X428682Y4073258D02*
X1135789Y4780364D01*
X1666119Y4250034D01*
%TF.MD5,35502bec4bcfbb59fd8196ec135f38c5*%
M02*
