%TF.GenerationSoftware,Altium Limited,Altium Designer,22.1.2 (22)*%
G04 Layer_Color=8388736*
%FSLAX45Y45*%
%MOMM*%
%TF.SameCoordinates,A05C4332-DD78-49BD-A17D-671ED2E2A3CF*%
%TF.FilePolarity,Negative*%
%TF.FileFunction,Soldermask,Top*%
%TF.Part,Single*%
G01*
G75*
%TA.AperFunction,ComponentPad*%
%ADD50R,1.58000X1.58000*%
%ADD51C,1.58000*%
%ADD52C,2.00000*%
%ADD53P,2.82843X4X90.0*%
%ADD54C,0.73000*%
%ADD55R,1.58000X1.58000*%
%ADD56R,1.89500X1.89500*%
%ADD57C,1.89500*%
%ADD58R,2.00000X2.00000*%
%ADD59C,2.18000*%
%ADD60P,2.67993X4X360.0*%
%TA.AperFunction,ViaPad*%
%ADD61C,1.60400*%
%TA.AperFunction,SMDPad,CuDef*%
G04:AMPARAMS|DCode=64|XSize=1.78mm|YSize=1.18mm|CornerRadius=0mm|HoleSize=0mm|Usage=FLASHONLY|Rotation=150.000|XOffset=0mm|YOffset=0mm|HoleType=Round|Shape=Rectangle|*
%AMROTATEDRECTD64*
4,1,4,1.06576,0.06596,0.47576,-0.95596,-1.06576,-0.06596,-0.47576,0.95596,1.06576,0.06596,0.0*
%
%ADD64ROTATEDRECTD64*%

G04:AMPARAMS|DCode=65|XSize=1.78mm|YSize=1.18mm|CornerRadius=0mm|HoleSize=0mm|Usage=FLASHONLY|Rotation=135.000|XOffset=0mm|YOffset=0mm|HoleType=Round|Shape=Rectangle|*
%AMROTATEDRECTD65*
4,1,4,1.04652,-0.21213,0.21213,-1.04652,-1.04652,0.21213,-0.21213,1.04652,1.04652,-0.21213,0.0*
%
%ADD65ROTATEDRECTD65*%

%ADD66R,1.38000X3.33000*%
%ADD67R,1.38000X1.03000*%
G04:AMPARAMS|DCode=68|XSize=1.78mm|YSize=1.18mm|CornerRadius=0mm|HoleSize=0mm|Usage=FLASHONLY|Rotation=60.000|XOffset=0mm|YOffset=0mm|HoleType=Round|Shape=Rectangle|*
%AMROTATEDRECTD68*
4,1,4,0.06596,-1.06576,-0.95596,-0.47576,-0.06596,1.06576,0.95596,0.47576,0.06596,-1.06576,0.0*
%
%ADD68ROTATEDRECTD68*%

G04:AMPARAMS|DCode=69|XSize=1.28mm|YSize=0.48mm|CornerRadius=0mm|HoleSize=0mm|Usage=FLASHONLY|Rotation=45.000|XOffset=0mm|YOffset=0mm|HoleType=Round|Shape=Rectangle|*
%AMROTATEDRECTD69*
4,1,4,-0.28284,-0.62225,-0.62225,-0.28284,0.28284,0.62225,0.62225,0.28284,-0.28284,-0.62225,0.0*
%
%ADD69ROTATEDRECTD69*%

G04:AMPARAMS|DCode=70|XSize=1.78mm|YSize=1.18mm|CornerRadius=0mm|HoleSize=0mm|Usage=FLASHONLY|Rotation=225.000|XOffset=0mm|YOffset=0mm|HoleType=Round|Shape=Rectangle|*
%AMROTATEDRECTD70*
4,1,4,0.21213,1.04652,1.04652,0.21213,-0.21213,-1.04652,-1.04652,-0.21213,0.21213,1.04652,0.0*
%
%ADD70ROTATEDRECTD70*%

%ADD71R,1.18000X1.78000*%
%ADD72R,1.78000X1.18000*%
G04:AMPARAMS|DCode=73|XSize=1.605mm|YSize=0.73mm|CornerRadius=0mm|HoleSize=0mm|Usage=FLASHONLY|Rotation=225.000|XOffset=0mm|YOffset=0mm|HoleType=Round|Shape=Rectangle|*
%AMROTATEDRECTD73*
4,1,4,0.30936,0.82555,0.82555,0.30936,-0.30936,-0.82555,-0.82555,-0.30936,0.30936,0.82555,0.0*
%
%ADD73ROTATEDRECTD73*%

G04:AMPARAMS|DCode=74|XSize=1.78mm|YSize=1.18mm|CornerRadius=0mm|HoleSize=0mm|Usage=FLASHONLY|Rotation=245.000|XOffset=0mm|YOffset=0mm|HoleType=Round|Shape=Rectangle|*
%AMROTATEDRECTD74*
4,1,4,-0.15859,1.05596,0.91085,0.55727,0.15859,-1.05596,-0.91085,-0.55727,-0.15859,1.05596,0.0*
%
%ADD74ROTATEDRECTD74*%

G04:AMPARAMS|DCode=75|XSize=1.78mm|YSize=1.18mm|CornerRadius=0mm|HoleSize=0mm|Usage=FLASHONLY|Rotation=320.000|XOffset=0mm|YOffset=0mm|HoleType=Round|Shape=Rectangle|*
%AMROTATEDRECTD75*
4,1,4,-1.06103,0.12011,-0.30253,1.02405,1.06103,-0.12011,0.30253,-1.02405,-1.06103,0.12011,0.0*
%
%ADD75ROTATEDRECTD75*%

G04:AMPARAMS|DCode=76|XSize=1.78mm|YSize=1.18mm|CornerRadius=0mm|HoleSize=0mm|Usage=FLASHONLY|Rotation=70.000|XOffset=0mm|YOffset=0mm|HoleType=Round|Shape=Rectangle|*
%AMROTATEDRECTD76*
4,1,4,0.25002,-1.03812,-0.85882,-0.63454,-0.25002,1.03812,0.85882,0.63454,0.25002,-1.03812,0.0*
%
%ADD76ROTATEDRECTD76*%

G04:AMPARAMS|DCode=77|XSize=1.78mm|YSize=1.18mm|CornerRadius=0mm|HoleSize=0mm|Usage=FLASHONLY|Rotation=120.000|XOffset=0mm|YOffset=0mm|HoleType=Round|Shape=Rectangle|*
%AMROTATEDRECTD77*
4,1,4,0.95596,-0.47576,-0.06596,-1.06576,-0.95596,0.47576,0.06596,1.06576,0.95596,-0.47576,0.0*
%
%ADD77ROTATEDRECTD77*%

%TA.AperFunction,ConnectorPad*%
%ADD78R,1.78000X1.18000*%
%TA.AperFunction,SMDPad,CuDef*%
G04:AMPARAMS|DCode=79|XSize=1.78mm|YSize=1.18mm|CornerRadius=0mm|HoleSize=0mm|Usage=FLASHONLY|Rotation=10.000|XOffset=0mm|YOffset=0mm|HoleType=Round|Shape=Rectangle|*
%AMROTATEDRECTD79*
4,1,4,-0.77403,-0.73558,-0.97893,0.42649,0.77403,0.73558,0.97893,-0.42649,-0.77403,-0.73558,0.0*
%
%ADD79ROTATEDRECTD79*%

G04:AMPARAMS|DCode=80|XSize=1.605mm|YSize=0.73mm|CornerRadius=0mm|HoleSize=0mm|Usage=FLASHONLY|Rotation=330.000|XOffset=0mm|YOffset=0mm|HoleType=Round|Shape=Rectangle|*
%AMROTATEDRECTD80*
4,1,4,-0.87749,0.08515,-0.51249,0.71735,0.87749,-0.08515,0.51249,-0.71735,-0.87749,0.08515,0.0*
%
%ADD80ROTATEDRECTD80*%

%ADD81R,1.60500X0.73000*%
D50*
X254000Y2108200D02*
D03*
D51*
Y2362200D02*
D03*
Y2616200D02*
D03*
Y2870200D02*
D03*
Y3124200D02*
D03*
X4762800Y2727000D02*
D03*
Y2473000D02*
D03*
X5016800D02*
D03*
D52*
X1754405Y3824505D02*
D03*
X1574800Y3644900D02*
D03*
X2311400Y4597400D02*
D03*
Y4851400D02*
D03*
D53*
X1395195Y3465295D02*
D03*
D54*
X4254800Y1992383D02*
D03*
Y3208541D02*
D03*
D55*
X5016800Y2727000D02*
D03*
D56*
X2844800Y4838700D02*
D03*
D57*
X2844800Y4584700D02*
D03*
X2844800Y4330700D02*
D03*
X3568700Y3733800D02*
D03*
X3748305Y3554195D02*
D03*
D58*
X2311400Y4343400D02*
D03*
D59*
X4267200Y4076700D02*
D03*
X3913647Y4430253D02*
D03*
X1206500Y4356100D02*
D03*
X852947Y4002547D02*
D03*
D60*
X3389095Y3913405D02*
D03*
D61*
X650000Y2600000D02*
D03*
D64*
X1324800Y777313D02*
D03*
X1189800Y543487D02*
D03*
X1261300Y1107513D02*
D03*
X1126300Y873687D02*
D03*
X1058100Y1221813D02*
D03*
X923100Y987987D02*
D03*
X854900Y1336113D02*
D03*
X719900Y1102287D02*
D03*
D65*
X3981659Y1555959D02*
D03*
X3790741Y1365041D02*
D03*
X3651459Y1594059D02*
D03*
X3460541Y1403141D02*
D03*
D66*
X1211300Y2019300D02*
D03*
D67*
X541300Y1790300D02*
D03*
Y2019300D02*
D03*
Y2248300D02*
D03*
D68*
X1755213Y478600D02*
D03*
X1521387Y613600D02*
D03*
D69*
X3577213Y1065637D02*
D03*
X3669137Y973713D02*
D03*
X3534787Y839363D02*
D03*
X3488825Y885325D02*
D03*
X3442863Y931287D02*
D03*
D70*
X3612941Y1301959D02*
D03*
X3803859Y1111041D02*
D03*
D71*
X2455800Y139700D02*
D03*
X2725800D02*
D03*
X3255900Y4699000D02*
D03*
X3525900D02*
D03*
X817500Y3022600D02*
D03*
X1087500D02*
D03*
D72*
X596900Y3116200D02*
D03*
Y3386200D02*
D03*
X4699000Y2294000D02*
D03*
Y2024000D02*
D03*
X4927600D02*
D03*
Y2294000D02*
D03*
X2578100Y4503800D02*
D03*
Y4233800D02*
D03*
X3124200Y779400D02*
D03*
Y1049400D02*
D03*
X4876800Y2938400D02*
D03*
Y3208400D02*
D03*
D73*
X4121236Y664129D02*
D03*
X4031434Y753931D02*
D03*
X3941631Y843734D02*
D03*
X3851829Y933536D02*
D03*
X4235364Y1317071D02*
D03*
X4325166Y1227269D02*
D03*
X4414969Y1137466D02*
D03*
X4504771Y1047664D02*
D03*
D74*
X2128951Y1225647D02*
D03*
X1884249Y1339753D02*
D03*
D75*
X4569876Y1678216D02*
D03*
X4396324Y1471384D02*
D03*
X4561424Y1331684D02*
D03*
X4734976Y1538516D02*
D03*
D76*
X1892441Y300173D02*
D03*
X2146159Y207827D02*
D03*
D77*
X3629587Y377000D02*
D03*
X3863413Y512000D02*
D03*
X3761813Y715200D02*
D03*
X3527987Y580200D02*
D03*
D78*
X2578100Y4665600D02*
D03*
Y4935600D02*
D03*
D79*
X319458Y1872849D02*
D03*
X366342Y1606951D02*
D03*
D80*
X2044616Y969178D02*
D03*
X1981116Y859193D02*
D03*
X1917616Y749207D02*
D03*
X1854116Y639222D02*
D03*
X1384384Y910422D02*
D03*
X1447884Y1020407D02*
D03*
X1511384Y1130393D02*
D03*
X1574884Y1240378D02*
D03*
D81*
X2917300Y355600D02*
D03*
Y482600D02*
D03*
Y609600D02*
D03*
Y736600D02*
D03*
Y863600D02*
D03*
Y990600D02*
D03*
Y1117600D02*
D03*
X2374900D02*
D03*
Y990600D02*
D03*
Y863600D02*
D03*
Y736600D02*
D03*
Y609600D02*
D03*
Y482600D02*
D03*
Y355600D02*
D03*
%TF.MD5,7e5c16ba6998c598055d9a7e54920939*%
M02*
