%TF.GenerationSoftware,Altium Limited,Altium Designer,22.1.2 (22)*%
G04 Layer_Color=32896*
%FSLAX45Y45*%
%MOMM*%
%TF.SameCoordinates,A05C4332-DD78-49BD-A17D-671ED2E2A3CF*%
%TF.FilePolarity,Positive*%
%TF.FileFunction,Legend,Bot*%
%TF.Part,Single*%
G01*
G75*
%TA.AperFunction,NonConductor*%
%ADD48C,0.25400*%
%ADD49C,0.17780*%
D48*
X2739659Y1046296D02*
Y893945D01*
X2663483D01*
X2638091Y919337D01*
Y944729D01*
X2663483Y970120D01*
X2739659D01*
X2663483D01*
X2638091Y995512D01*
Y1020904D01*
X2663483Y1046296D01*
X2739659D01*
X2587308Y995512D02*
Y919337D01*
X2561916Y893945D01*
X2485741D01*
Y868553D01*
X2511133Y843162D01*
X2536525D01*
X2485741Y893945D02*
Y995512D01*
X3717243Y599381D02*
Y751732D01*
X3666459Y700948D01*
X3615675Y751732D01*
Y599381D01*
X3564892D02*
X3514108D01*
X3539500D01*
Y700948D01*
X3564892D01*
X3336366Y751732D02*
Y599381D01*
X3412541D01*
X3437933Y624773D01*
Y675556D01*
X3412541Y700948D01*
X3336366D01*
X3260190D02*
X3209407D01*
X3184015Y675556D01*
Y599381D01*
X3260190D01*
X3285582Y624773D01*
X3260190Y650164D01*
X3184015D01*
X3133231Y599381D02*
X3057056D01*
X3031664Y624773D01*
X3057056Y650164D01*
X3107840D01*
X3133231Y675556D01*
X3107840Y700948D01*
X3031664D01*
X2752355Y751732D02*
X2803138D01*
X2828530Y726340D01*
Y624773D01*
X2803138Y599381D01*
X2752355D01*
X2726963Y624773D01*
Y726340D01*
X2752355Y751732D01*
X2676179Y700948D02*
X2625396Y599381D01*
X2574612Y700948D01*
X2447653Y599381D02*
X2498437D01*
X2523829Y624773D01*
Y675556D01*
X2498437Y700948D01*
X2447653D01*
X2422261Y675556D01*
Y650164D01*
X2523829D01*
X2371478Y700948D02*
Y599381D01*
Y650164D01*
X2346086Y675556D01*
X2320694Y700948D01*
X2295302D01*
X2219127Y751732D02*
Y599381D01*
X2142952D01*
X2117560Y624773D01*
Y650164D01*
Y675556D01*
X2142952Y700948D01*
X2219127D01*
X1990601Y599381D02*
X2041385D01*
X2066776Y624773D01*
Y675556D01*
X2041385Y700948D01*
X1990601D01*
X1965209Y675556D01*
Y650164D01*
X2066776D01*
X1838250Y599381D02*
X1889034D01*
X1914426Y624773D01*
Y675556D01*
X1889034Y700948D01*
X1838250D01*
X1812858Y675556D01*
Y650164D01*
X1914426D01*
X1762075Y599381D02*
Y751732D01*
Y650164D02*
X1685900Y700948D01*
X1762075Y650164D02*
X1685900Y599381D01*
X1533549D02*
X1584332D01*
X1609724Y624773D01*
Y675556D01*
X1584332Y700948D01*
X1533549D01*
X1508157Y675556D01*
Y650164D01*
X1609724D01*
X2790442Y355600D02*
X2892009D01*
X2790442Y457167D01*
Y482559D01*
X2815834Y507951D01*
X2866618D01*
X2892009Y482559D01*
X2739659D02*
X2714267Y507951D01*
X2663483D01*
X2638091Y482559D01*
Y380992D01*
X2663483Y355600D01*
X2714267D01*
X2739659Y380992D01*
Y482559D01*
X2485741Y355600D02*
X2587308D01*
X2485741Y457167D01*
Y482559D01*
X2511133Y507951D01*
X2561916D01*
X2587308Y482559D01*
X2333390Y507951D02*
X2384174Y482559D01*
X2434957Y431775D01*
Y380992D01*
X2409565Y355600D01*
X2358782D01*
X2333390Y380992D01*
Y406383D01*
X2358782Y431775D01*
X2434957D01*
X4117864Y3798185D02*
X4046045Y3870004D01*
X3956272Y3852049D02*
X4064000Y3959778D01*
X3992181D01*
Y4031596D01*
X3884453Y3923868D01*
X3902408Y4121370D02*
X3938317Y4085461D01*
Y4049551D01*
X3866498Y3977732D01*
X3830589D01*
X3794679Y4013642D01*
Y4049551D01*
X3866498Y4121370D01*
X3902408D01*
X3848543Y4175234D02*
X3776725Y4247053D01*
X3812634Y4211143D01*
X3704906Y4103415D01*
X3686951Y4229098D02*
X3615132Y4300917D01*
X3686951Y4300917D02*
X3615132Y4229098D01*
X1485015Y4244864D02*
X1413196Y4173045D01*
X1359332Y4011453D02*
X1431151Y4083272D01*
X1287513D01*
X1269558Y4101226D01*
Y4137136D01*
X1305468Y4173045D01*
X1341377D01*
X1269558Y3921679D02*
X1161830Y4029408D01*
X1269558D01*
X1197739Y3957589D01*
X1107966Y3975543D02*
X1179785Y3903725D01*
Y3831906D01*
X1107966Y3831906D01*
X1036147Y3903725D01*
X1054102Y3813951D02*
X982283Y3742132D01*
X982283Y3813951D02*
X1054102Y3742132D01*
X1121511Y571663D02*
X1253451Y495488D01*
X1291538Y561458D01*
X1282244Y596143D01*
X1238264Y621535D01*
X1203578Y612241D01*
X1165491Y546271D01*
X1190883Y590251D02*
X1172295Y659623D01*
X1197686Y703603D02*
X1223078Y747582D01*
X1210382Y725593D01*
X1342322Y649417D01*
X1307636Y640123D01*
X1299254Y879522D02*
X1431193Y803347D01*
X1327136Y775465D01*
X1377919Y863424D01*
X3868245Y1514364D02*
Y1550273D01*
X3904154Y1586183D01*
X3940064D01*
X4011883Y1514364D01*
Y1478454D01*
X3975974Y1442545D01*
X3940064D01*
X3832336Y1478454D02*
X3796426D01*
X3760517Y1442545D01*
Y1406635D01*
X3778471Y1388681D01*
X3814381D01*
X3832336Y1406636D01*
X3814381Y1388681D01*
Y1352771D01*
X3832336Y1334817D01*
X3868245D01*
X3904154Y1370726D01*
Y1406636D01*
X3749564Y1237154D02*
X3785474D01*
X3821383Y1201245D01*
Y1165336D01*
X3749564Y1093517D01*
X3713655D01*
X3677746Y1129426D01*
Y1165336D01*
X3570017Y1237154D02*
X3677746Y1344883D01*
Y1237154D01*
X3605926Y1308974D01*
X4647543Y1652268D02*
X4530836Y1750197D01*
X4481871Y1691844D01*
X4485001Y1656071D01*
X4523904Y1623428D01*
X4559676Y1626558D01*
X4608641Y1684911D01*
X4575998Y1646009D02*
X4582257Y1574463D01*
X4549614Y1535561D02*
X4516971Y1496658D01*
X4533293Y1516109D01*
X4416585Y1614039D01*
X4452358Y1617168D01*
X4468007Y1438305D02*
X4435364Y1399402D01*
X4451685Y1418853D01*
X4334978Y1516783D01*
X4370750Y1519912D01*
X4828965Y1532020D02*
X4712258Y1629949D01*
X4663293Y1571595D01*
X4666423Y1535822D01*
X4705325Y1503179D01*
X4741098Y1506309D01*
X4790063Y1564663D01*
X4757419Y1525760D02*
X4763679Y1454215D01*
X4731036Y1415312D02*
X4698393Y1376410D01*
X4714714Y1395861D01*
X4598007Y1493790D01*
X4633780Y1496920D01*
X4552172Y1399663D02*
X4516399Y1396534D01*
X4483756Y1357632D01*
X4486886Y1321859D01*
X4564691Y1256573D01*
X4600464Y1259702D01*
X4633107Y1298605D01*
X4629977Y1334378D01*
X4552172Y1399663D01*
X4775175Y2285959D02*
X4622825D01*
Y2209783D01*
X4648217Y2184392D01*
X4699000D01*
X4724392Y2209783D01*
Y2285959D01*
Y2235175D02*
X4775175Y2184392D01*
X4749783Y2133608D02*
X4775175Y2108216D01*
Y2057433D01*
X4749783Y2032041D01*
X4648217D01*
X4622825Y2057433D01*
Y2108216D01*
X4648217Y2133608D01*
X4673608D01*
X4699000Y2108216D01*
Y2032041D01*
X2089471Y1160006D02*
X2153857Y1298083D01*
X2084819Y1330276D01*
X2051075Y1317994D01*
X2029613Y1271969D01*
X2041895Y1238225D01*
X2110933Y1206032D01*
X2064907Y1227494D02*
X1997420Y1202931D01*
X1859343Y1267317D02*
X1951394Y1224393D01*
X1902267Y1359368D01*
X1912998Y1382381D01*
X1946742Y1394662D01*
X1992767Y1373200D01*
X2005049Y1339456D01*
X4889517Y2197092D02*
X4864125Y2222483D01*
Y2273267D01*
X4889517Y2298659D01*
X4991083D01*
X5016475Y2273267D01*
Y2222483D01*
X4991083Y2197092D01*
X4864125Y2044741D02*
X4889517Y2095525D01*
X4940300Y2146308D01*
X4991083D01*
X5016475Y2120916D01*
Y2070133D01*
X4991083Y2044741D01*
X4965692D01*
X4940300Y2070133D01*
Y2146308D01*
D49*
X621472Y2111139D02*
X636284Y2125951D01*
X665908D01*
X680720Y2111139D01*
Y2051892D01*
X665908Y2037080D01*
X636284D01*
X621472Y2051892D01*
Y2081516D01*
X651096D01*
X591849Y2037080D02*
Y2125951D01*
X532601Y2037080D01*
Y2125951D01*
X502977D02*
Y2037080D01*
X458542D01*
X443730Y2051892D01*
Y2111139D01*
X458542Y2125951D01*
X502977D01*
X680720Y2354551D02*
Y2265680D01*
X636284D01*
X621472Y2280492D01*
Y2339739D01*
X636284Y2354551D01*
X680720D01*
X591849D02*
X562225D01*
X577037D01*
Y2265680D01*
X591849D01*
X562225D01*
X517789D02*
Y2354551D01*
X473354D01*
X458542Y2339739D01*
Y2310116D01*
X473354Y2295304D01*
X517789D01*
X488166D02*
X458542Y2265680D01*
X449551Y2591628D02*
Y2532380D01*
X360680D01*
Y2591628D01*
X405116Y2532380D02*
Y2562004D01*
X360680Y2621251D02*
X449551D01*
X360680Y2680499D01*
X449551D01*
X668020Y2824480D02*
Y2913351D01*
X623584D01*
X608772Y2898539D01*
Y2868916D01*
X623584Y2854104D01*
X668020D01*
X579149Y2913351D02*
Y2824480D01*
X549525Y2854104D01*
X519901Y2824480D01*
Y2913351D01*
X490277Y2824480D02*
Y2913351D01*
X460654Y2883728D01*
X431030Y2913351D01*
Y2824480D01*
X680720Y3122916D02*
X621472D01*
X651096Y3152539D02*
Y3093292D01*
X532601Y3167351D02*
X591849D01*
Y3122916D01*
X562225Y3137728D01*
X547413D01*
X532601Y3122916D01*
Y3093292D01*
X547413Y3078480D01*
X577037D01*
X591849Y3093292D01*
X502977Y3167351D02*
Y3108104D01*
X473354Y3078480D01*
X443730Y3108104D01*
Y3167351D01*
%TF.MD5,d519cf40be1a8d7ad7ee40857ef057e8*%
M02*
